STARTFONT 2.1
FONT -FontForge-DejaVu Serif-Book-R-Normal--18-170-75-75-P-119-ISO10646-1
SIZE 17 75 75
FONTBOUNDINGBOX 52 26 -14 -6
COMMENT "Generated by fontforge, http://fontforge.sourceforge.net"
COMMENT "Copyright (c) 2003 by Bitstream, Inc. All Rights Reserved."
COMMENT "DejaVu changes are in public domain"
STARTPROPERTIES 40
FOUNDRY "FontForge"
FAMILY_NAME "DejaVu Serif"
WEIGHT_NAME "Book"
SLANT "R"
SETWIDTH_NAME "Normal"
ADD_STYLE_NAME ""
PIXEL_SIZE 18
POINT_SIZE 170
RESOLUTION_X 75
RESOLUTION_Y 75
SPACING "P"
AVERAGE_WIDTH 119
CHARSET_REGISTRY "ISO10646"
CHARSET_ENCODING "1"
FONTNAME_REGISTRY ""
CHARSET_COLLECTIONS "ASCII ISOLatin1Encoding ISO8859-2 ISO8859-5 ISO8859-7 ISO8859-9 ISO8859-4 ISO10646-1"
FONT_NAME "DejaVuSerif"
FACE_NAME "DejaVu Serif"
COPYRIGHT "Copyright (c) 2003 by Bitstream, Inc. All Rights Reserved."
FONT_VERSION "2.37"
FONT_ASCENT 14
FONT_DESCENT 4
UNDERLINE_POSITION -2
UNDERLINE_THICKNESS 1
X_HEIGHT 8
CAP_HEIGHT 12
RAW_ASCENT 759
RAW_DESCENT 240
NORM_SPACE 6
RELATIVE_WEIGHT 40
RELATIVE_SETWIDTH 50
SUPERSCRIPT_X 0
SUPERSCRIPT_Y 8
SUPERSCRIPT_SIZE 12
SUBSCRIPT_X 0
SUBSCRIPT_Y 2
SUBSCRIPT_SIZE 12
FIGURE_WIDTH 11
AVG_LOWERCASE_WIDTH 112
AVG_UPPERCASE_WIDTH 142
ENDPROPERTIES
CHARS 40
STARTCHAR space
ENCODING 32
SWIDTH 317 0
DWIDTH 6 0
BBX 1 1 0 0
BITMAP
00
ENDCHAR
STARTCHAR plus
ENCODING 43
SWIDTH 837 0
DWIDTH 15 0
BBX 11 11 2 0
BITMAP
0400
0400
0400
0400
0400
FFE0
0400
0400
0400
0400
0400
ENDCHAR
STARTCHAR comma
ENCODING 44
SWIDTH 317 0
DWIDTH 6 0
BBX 4 4 0 -2
BITMAP
30
30
60
C0
ENDCHAR
STARTCHAR hyphen
ENCODING 45
SWIDTH 337 0
DWIDTH 6 0
BBX 5 1 1 5
BITMAP
F8
ENDCHAR
STARTCHAR period
ENCODING 46
SWIDTH 317 0
DWIDTH 6 0
BBX 2 2 2 0
BITMAP
C0
C0
ENDCHAR
STARTCHAR slash
ENCODING 47
SWIDTH 336 0
DWIDTH 6 0
BBX 6 15 0 -2
BITMAP
0C
0C
08
08
18
10
10
30
20
20
60
40
40
C0
C0
ENDCHAR
STARTCHAR zero
ENCODING 48
SWIDTH 636 0
DWIDTH 11 0
BBX 9 13 1 0
BITMAP
3E00
6300
6300
C180
C180
C180
C180
C180
C180
C180
6300
6300
3E00
ENDCHAR
STARTCHAR one
ENCODING 49
SWIDTH 636 0
DWIDTH 11 0
BBX 7 13 2 0
BITMAP
18
78
98
18
18
18
18
18
18
18
18
18
7E
ENDCHAR
STARTCHAR two
ENCODING 50
SWIDTH 636 0
DWIDTH 11 0
BBX 8 13 1 0
BITMAP
7C
C6
83
03
03
06
04
08
10
21
41
FF
FF
ENDCHAR
STARTCHAR three
ENCODING 51
SWIDTH 636 0
DWIDTH 11 0
BBX 9 13 1 0
BITMAP
7C00
C700
8300
0300
0600
1800
0700
0180
0180
0180
8180
C300
7E00
ENDCHAR
STARTCHAR four
ENCODING 52
SWIDTH 636 0
DWIDTH 11 0
BBX 10 13 1 0
BITMAP
0600
0E00
0E00
1600
3600
2600
4600
C600
FFC0
0600
0600
0600
1F80
ENDCHAR
STARTCHAR five
ENCODING 53
SWIDTH 636 0
DWIDTH 11 0
BBX 9 13 1 0
BITMAP
7F00
7F00
4000
4000
7E00
4300
0180
0180
0180
0180
8180
C300
7E00
ENDCHAR
STARTCHAR six
ENCODING 54
SWIDTH 636 0
DWIDTH 11 0
BBX 9 13 1 0
BITMAP
1E00
2300
6100
C000
DE00
E300
C180
C180
C180
C180
4180
6300
3E00
ENDCHAR
STARTCHAR seven
ENCODING 55
SWIDTH 636 0
DWIDTH 11 0
BBX 9 13 1 0
BITMAP
FF80
FF80
8100
8100
0200
0200
0600
0400
0400
0800
0800
1000
1000
ENDCHAR
STARTCHAR eight
ENCODING 56
SWIDTH 636 0
DWIDTH 11 0
BBX 9 13 1 0
BITMAP
3E00
E380
C180
C180
6300
1C00
6300
C180
C180
C180
C180
6300
3E00
ENDCHAR
STARTCHAR nine
ENCODING 57
SWIDTH 636 0
DWIDTH 11 0
BBX 9 13 1 0
BITMAP
3E00
6300
C100
C180
C180
C180
C180
6380
3D80
0180
4300
6200
3C00
ENDCHAR
STARTCHAR colon
ENCODING 58
SWIDTH 336 0
DWIDTH 6 0
BBX 2 8 2 0
BITMAP
C0
C0
00
00
00
00
C0
C0
ENDCHAR
STARTCHAR C
ENCODING 67
SWIDTH 765 0
DWIDTH 14 0
BBX 12 13 1 0
BITMAP
0FC0
3070
6030
6010
C000
C000
C000
C000
C000
4030
6060
30E0
0F80
ENDCHAR
STARTCHAR D
ENCODING 68
SWIDTH 801 0
DWIDTH 15 0
BBX 12 13 2 0
BITMAP
FF00
61C0
6060
6060
6030
6030
6030
6030
6030
6060
6060
61C0
FF00
ENDCHAR
STARTCHAR F
ENCODING 70
SWIDTH 693 0
DWIDTH 12 0
BBX 10 13 2 0
BITMAP
FFC0
6040
6040
6100
6100
7F00
6100
6100
6000
6000
6000
6000
F800
ENDCHAR
STARTCHAR M
ENCODING 77
SWIDTH 1023 0
DWIDTH 19 0
BBX 15 13 2 0
BITMAP
E00E
601C
701C
702C
582C
5C4C
4C4C
4E8C
468C
478C
430C
400C
E01E
ENDCHAR
STARTCHAR S
ENCODING 83
SWIDTH 685 0
DWIDTH 12 0
BBX 10 13 1 0
BITMAP
3F00
6180
C080
C080
E000
7C00
3F80
03C0
00C0
80C0
80C0
C180
7F00
ENDCHAR
STARTCHAR T
ENCODING 84
SWIDTH 666 0
DWIDTH 12 0
BBX 12 13 0 0
BITMAP
FFF0
8610
8610
0600
0600
0600
0600
0600
0600
0600
0600
0600
0F00
ENDCHAR
STARTCHAR U
ENCODING 85
SWIDTH 842 0
DWIDTH 14 0
BBX 12 13 1 0
BITMAP
F070
6020
6020
6020
6020
6020
6020
6020
6020
6020
6020
3040
1F80
ENDCHAR
STARTCHAR V
ENCODING 86
SWIDTH 722 0
DWIDTH 13 0
BBX 13 13 0 0
BITMAP
F878
6030
3020
3020
3840
1840
1840
0C80
0C80
0D00
0700
0700
0600
ENDCHAR
STARTCHAR W
ENCODING 87
SWIDTH 1027 0
DWIDTH 19 0
BBX 18 13 0 0
BITMAP
F843C0
60E080
30E100
30E100
316100
193200
193200
193200
1A3200
0E1C00
0E1C00
0E1C00
040C00
ENDCHAR
STARTCHAR a
ENCODING 97
SWIDTH 596 0
DWIDTH 11 0
BBX 9 9 1 0
BITMAP
3C00
6600
4300
0300
7F00
C300
C300
C300
7F80
ENDCHAR
STARTCHAR d
ENCODING 100
SWIDTH 640 0
DWIDTH 12 0
BBX 10 14 1 0
BITMAP
0380
0180
0180
0180
0180
3D80
6380
C180
C180
C180
C180
C180
6380
3DC0
ENDCHAR
STARTCHAR e
ENCODING 101
SWIDTH 591 0
DWIDTH 11 0
BBX 9 9 1 0
BITMAP
3E00
6300
C180
C180
FF80
C000
C080
6100
3E00
ENDCHAR
STARTCHAR h
ENCODING 104
SWIDTH 644 0
DWIDTH 12 0
BBX 10 14 1 0
BITMAP
E000
6000
6000
6000
6000
6F00
7180
6180
6180
6180
6180
6180
6180
F3C0
ENDCHAR
STARTCHAR i
ENCODING 105
SWIDTH 319 0
DWIDTH 6 0
BBX 4 13 1 0
BITMAP
60
60
00
00
E0
60
60
60
60
60
60
60
F0
ENDCHAR
STARTCHAR k
ENCODING 107
SWIDTH 605 0
DWIDTH 11 0
BBX 10 14 1 0
BITMAP
E000
6000
6000
6000
6000
6780
6200
6400
6800
7C00
6600
6600
6300
F7C0
ENDCHAR
STARTCHAR m
ENCODING 109
SWIDTH 948 0
DWIDTH 16 0
BBX 14 9 1 0
BITMAP
EE70
7398
6318
6318
6318
6318
6318
6318
F7BC
ENDCHAR
STARTCHAR o
ENCODING 111
SWIDTH 602 0
DWIDTH 11 0
BBX 9 9 1 0
BITMAP
3E00
6300
C180
C180
C180
C180
C180
6300
3E00
ENDCHAR
STARTCHAR p
ENCODING 112
SWIDTH 640 0
DWIDTH 12 0
BBX 10 13 1 -4
BITMAP
EF00
7180
60C0
60C0
60C0
60C0
60C0
7180
6F00
6000
6000
6000
F000
ENDCHAR
STARTCHAR r
ENCODING 114
SWIDTH 478 0
DWIDTH 9 0
BBX 7 9 1 0
BITMAP
EE
72
60
60
60
60
60
60
F8
ENDCHAR
STARTCHAR s
ENCODING 115
SWIDTH 513 0
DWIDTH 9 0
BBX 7 9 1 0
BITMAP
7C
C6
C2
F0
3C
0E
86
C6
7C
ENDCHAR
STARTCHAR t
ENCODING 116
SWIDTH 401 0
DWIDTH 8 0
BBX 6 12 1 0
BITMAP
60
60
60
FC
60
60
60
60
60
64
64
38
ENDCHAR
STARTCHAR u
ENCODING 117
SWIDTH 644 0
DWIDTH 12 0
BBX 10 9 1 0
BITMAP
E380
6180
6180
6180
6180
6180
6180
6380
3DC0
ENDCHAR
STARTCHAR degree
ENCODING 176
SWIDTH 500 0
DWIDTH 9 0
BBX 6 6 2 7
BITMAP
78
CC
84
84
CC
78
ENDCHAR
ENDFONT
